<svg version="1.1" id="Layer_1" xmlns="http://www.w3.org/2000/svg" xmlns:xlink="http://www.w3.org/1999/xlink" x="0px" y="0px"
	 width="100%" viewBox="0 0 1024 1024" enable-background="new 0 0 1024 1024" xml:space="preserve">
<path fill="#000000" opacity="1.000000" stroke="none" 
	d="
M377.654968,160.644745 
	C405.241760,135.851807 437.176483,125.601486 473.691101,129.500885 
	C488.607025,131.093750 502.698181,135.479401 515.969666,142.337311 
	C520.194946,144.520691 523.808594,144.569305 528.263245,142.985840 
	C554.536377,133.646683 581.043884,132.389206 607.429443,142.394592 
	C638.817261,154.296783 659.399231,176.911713 671.141968,208.000778 
	C671.317932,208.466675 671.457397,208.951035 671.564087,209.437729 
	C672.657776,214.423996 674.893616,216.301346 680.790222,216.086517 
	C721.873047,214.589859 755.843018,244.627609 760.490723,285.430267 
	C761.684753,295.912628 760.926147,306.035309 758.033630,316.032806 
	C757.061523,319.392914 757.765442,320.718384 761.106323,321.776123 
	C796.295715,332.917023 813.862122,366.135498 803.223938,401.493256 
	C802.184326,404.948608 802.861694,406.823425 805.598633,409.079132 
	C835.897095,434.050201 835.973206,482.380615 805.881531,507.468384 
	C804.747620,508.413666 803.340210,509.112762 802.692139,510.928833 
	C804.753418,514.101196 807.141663,517.299072 809.037231,520.766296 
	C835.416382,569.016235 804.875488,627.889160 750.242065,634.088928 
	C746.618530,634.500122 742.883118,634.566895 739.262634,634.189758 
	C735.276184,633.774597 734.143982,635.692078 733.349670,639.093933 
	C726.647888,667.795227 709.867920,687.681274 681.405457,696.505676 
	C661.854858,702.567017 642.883972,699.818970 624.798462,690.436768 
	C623.651367,689.841736 622.599365,688.887451 620.779663,689.168335 
	C619.361572,695.030273 621.204712,700.885193 621.476990,706.748169 
	C621.591125,709.205566 624.223999,709.305298 626.073120,709.894714 
	C670.967590,724.205200 715.917664,738.343384 760.749878,752.846252 
	C814.695435,770.297241 844.515808,808.141968 853.425110,863.463501 
	C854.698608,871.370911 855.249268,879.319214 855.724792,887.286011 
	C856.075439,893.162659 852.988831,897.095825 847.866516,897.493591 
	C842.508118,897.909790 838.712769,894.970947 838.378357,888.913147 
	C837.633057,875.416016 836.285767,862.056763 832.652161,848.985657 
	C821.711487,809.629211 796.514038,783.444214 758.117676,770.646118 
	C714.377380,756.066711 670.261475,742.612854 626.296265,728.709595 
	C617.053894,725.786926 617.022949,725.863281 611.998840,734.511597 
	C594.818542,764.085327 570.234070,783.975098 536.446411,791.253479 
	C488.637970,801.552063 439.202850,779.071655 415.020264,736.451721 
	C408.889923,725.647522 408.865143,725.569824 397.024109,729.341248 
	C352.926056,743.386475 308.552704,756.643250 264.844788,771.815247 
	C224.741409,785.736145 200.467682,814.831360 191.395584,856.387451 
	C189.477341,865.174316 188.234711,874.066833 188.073639,883.089233 
	C188.032135,885.413940 187.897003,887.765137 187.495407,890.049805 
	C186.572632,895.299438 183.084290,897.964722 178.032242,897.516296 
	C173.589600,897.121948 170.069336,893.519958 170.227890,888.672363 
	C171.195312,859.096130 177.076920,830.797668 193.544800,805.625854 
	C209.513016,781.217896 231.447601,764.050720 259.156555,754.989014 
	C305.050812,739.980042 351.109039,725.469177 397.175720,710.995239 
	C402.497711,709.323120 405.428253,707.236206 405.184357,701.171204 
	C405.026917,697.255005 405.980591,693.273315 405.387360,689.287231 
	C403.383209,688.636353 402.088959,690.001282 400.714539,690.734802 
	C358.123199,713.465881 305.053497,691.080139 292.988770,640.979370 
	C291.647797,635.410889 289.470032,634.117310 284.071686,634.172485 
	C245.128998,634.570251 212.239090,605.573853 207.922089,566.874268 
	C205.883301,548.597656 209.570877,531.311401 220.225616,516.030029 
	C223.041977,511.990723 223.039368,509.862946 219.145035,506.381195 
	C192.741135,482.774658 190.195145,442.873566 213.043076,415.971039 
	C213.474564,415.463043 213.815536,414.796417 214.359268,414.477661 
	C223.075485,409.368774 223.010605,402.563202 220.957245,393.233856 
	C214.884476,365.642242 228.953583,335.773499 258.482635,323.625092 
	C260.003326,322.999481 261.484985,322.278961 263.226288,321.493713 
	C262.336945,315.807007 260.236023,310.550964 259.497040,304.956360 
	C253.959854,263.035400 281.465607,224.867920 323.153656,217.098434 
	C328.859924,216.034958 334.699005,215.341125 340.552795,215.887405 
	C343.721405,216.183105 345.298920,215.069656 346.214935,211.831604 
	C351.835785,191.962051 362.496674,175.112106 377.654968,160.644745 
M743.437866,616.729919 
	C749.165405,616.885681 754.735596,615.887268 760.129456,614.089722 
	C805.030823,599.126038 813.082031,544.623108 784.238647,517.512512 
	C776.847534,510.565430 777.893982,504.642700 786.588440,499.585358 
	C821.257141,479.419464 816.951355,432.853424 786.785522,417.181885 
	C781.754700,414.568298 780.615662,410.628448 782.722290,405.414490 
	C783.345215,403.872864 784.126770,402.394501 784.852966,400.895538 
	C789.159668,392.005768 789.813965,382.693939 788.006775,373.119568 
	C783.833496,351.010864 763.718445,337.052582 745.929382,336.758789 
	C735.611145,336.588379 732.369934,330.242767 737.067139,321.241516 
	C743.727295,308.478760 745.348999,294.984589 742.164551,281.003143 
	C734.942322,249.294083 707.129517,230.463791 673.550049,234.394180 
	C662.177612,235.725311 660.718567,234.732635 657.654175,223.375534 
	C652.203064,203.172592 642.210449,185.610641 625.565125,172.764374 
	C595.574341,149.618683 562.796936,147.608765 528.519592,162.019043 
	C523.250427,164.234207 518.976685,164.190781 513.980957,161.257050 
	C491.926117,148.305283 468.033691,143.635239 442.829041,147.731110 
	C400.571289,154.598190 369.566071,184.256363 360.343689,225.815277 
	C358.654480,233.427261 354.567139,236.171722 347.026672,234.827774 
	C339.738464,233.528793 332.404816,233.445770 325.163696,234.909988 
	C285.855042,242.858612 265.095581,284.691620 282.470215,320.793213 
	C286.860504,329.915527 284.497375,335.229889 274.535217,336.990479 
	C244.166031,342.357635 227.381393,377.424377 242.451736,403.328583 
	C245.981079,409.395081 244.475571,414.412354 238.453125,417.770233 
	C206.787140,435.425751 207.021484,481.018219 239.399902,499.507935 
	C248.049789,504.447479 248.658066,509.857483 241.890594,517.009644 
	C225.840164,533.972534 220.622650,553.960938 227.791855,576.045288 
	C235.008987,598.277100 250.975479,611.586609 274.130402,616.012756 
	C281.976257,617.512573 289.703064,616.324524 297.479767,615.535095 
	C304.521271,614.820251 307.712646,617.642029 308.409698,624.523865 
	C308.995178,630.304565 309.558990,636.075684 311.340790,641.698181 
	C323.848907,681.168640 371.829681,694.993652 402.152740,667.819397 
	C404.961151,665.302612 406.892456,662.716980 406.977325,658.514221 
	C407.151764,649.874695 407.889496,641.236206 408.676025,632.622986 
	C409.164154,627.277588 407.648560,623.176636 403.824615,619.216248 
	C380.723755,595.291138 363.982819,568.021423 360.416809,534.097534 
	C360.044403,530.554688 358.413605,529.197083 354.686218,528.845703 
	C342.765686,527.722046 332.663879,522.506287 324.645905,513.612671 
	C311.310028,498.820435 303.610077,481.239502 300.803894,461.714142 
	C296.566589,432.231171 315.491577,415.007782 333.740601,409.871368 
	C340.274658,408.032257 341.190765,405.901703 338.255432,399.650635 
	C336.978546,396.931396 335.164124,394.718658 332.258606,394.043243 
	C325.848938,392.553192 324.350128,388.237885 324.904999,382.427307 
	C325.078491,380.610260 324.911560,378.762878 324.951355,376.930511 
	C325.099762,370.092499 326.033997,368.920044 332.586426,367.415802 
	C335.504669,366.745850 338.412628,365.941254 341.371887,365.560516 
	C345.958496,364.970428 348.904449,362.610260 350.738831,358.406342 
	C354.410156,349.992584 357.737183,341.437012 359.516388,332.437134 
	C360.577454,327.069733 363.494934,324.271973 368.552917,323.153473 
	C370.496918,322.723602 372.458099,322.318420 374.348755,321.707886 
	C398.655396,313.858490 413.160950,296.961853 419.653351,272.634827 
	C421.745117,264.797028 425.416748,257.712311 430.804443,251.641327 
	C448.733002,231.439087 474.526489,225.804672 501.524445,236.422775 
	C505.391693,237.943726 507.982605,237.586807 511.489990,235.415436 
	C531.375305,223.104706 552.273804,219.124161 574.080383,230.093719 
	C588.550720,237.372894 598.473389,248.938721 603.452454,264.497070 
	C611.551453,289.804199 627.330261,307.172760 653.825439,313.656677 
	C659.780945,315.114136 662.385864,318.524017 662.231506,324.927429 
	C661.983032,335.231323 663.864563,345.076355 667.206238,354.784210 
	C669.739075,362.142365 673.647156,367.373474 682.159424,367.732300 
	C686.430481,367.912323 688.272949,370.649292 688.297913,374.746613 
	C688.322266,378.746033 688.237915,382.747864 688.350037,386.744476 
	C688.435364,389.785278 687.293274,392.030914 684.390625,392.949432 
	C681.757690,393.782532 681.354675,395.540558 681.365784,397.936951 
	C681.406555,406.739410 681.685303,407.169342 689.871094,409.604614 
	C692.103821,410.268860 694.354431,410.926056 696.502014,411.815521 
	C717.578369,420.544586 725.862549,437.963104 724.844788,456.767609 
	C723.829468,475.526520 716.525269,492.327423 705.530334,507.436096 
	C696.300110,520.119812 684.479797,528.715271 668.105591,529.258606 
	C665.290466,529.352051 664.542847,530.755127 664.226807,533.307739 
	C663.121704,542.232483 661.271790,551.003540 658.518799,559.593445 
	C651.074219,582.822205 637.119141,601.975769 620.955627,619.724121 
	C618.297852,622.642517 616.957825,625.617798 617.243896,629.580017 
	C617.986938,639.871460 618.588257,650.174438 619.102600,660.480042 
	C619.232788,663.089966 620.594055,664.755005 622.294617,666.425903 
	C639.753601,683.580261 667.945679,687.007507 688.785034,674.181274 
	C707.397156,662.725891 716.571045,645.702209 717.684448,624.012268 
	C718.001099,617.843140 721.907532,614.922363 728.098450,615.410889 
	C732.904114,615.790100 737.626465,617.078735 743.437866,616.729919 
M373.180328,502.611053 
	C374.230225,510.013092 375.442902,517.396301 376.299530,524.820679 
	C378.862549,547.034729 385.308533,567.834473 398.881958,585.905334 
	C413.719147,605.658569 430.518250,623.690796 448.084351,641.035645 
	C459.300415,652.110474 472.360779,659.845215 487.946686,662.419250 
	C501.634796,664.679932 515.550964,664.120850 529.336304,663.356750 
	C547.328003,662.359558 562.461487,654.876099 575.531067,642.298035 
	C590.934387,627.473999 605.106384,611.600769 618.687195,595.151062 
	C631.387634,579.767578 640.666504,562.614746 645.074097,543.049438 
	C647.339844,532.991821 648.465698,522.735596 649.923889,512.536194 
	C654.391479,481.286041 659.015198,450.058167 663.546936,418.817078 
	C663.713928,417.665710 664.003479,416.346985 662.523315,414.739502 
	C661.075562,425.562225 658.626953,435.384277 654.666748,444.780151 
	C649.360107,457.370880 640.634888,466.490753 627.575317,471.115723 
	C607.398926,478.261078 587.161011,478.314484 566.873230,471.588654 
	C556.049805,468.000488 547.488525,461.374725 541.015198,452.066956 
	C533.857239,441.774780 529.774536,430.271301 527.581238,417.969604 
	C526.448914,411.618347 526.976501,405.146515 523.077209,398.996460 
	C520.449951,394.852783 518.084351,392.373077 513.487427,391.751617 
	C509.000916,391.145081 504.548798,391.148071 500.080597,392.048645 
	C493.349487,393.405273 486.397430,401.352173 486.381805,408.266083 
	C486.368896,413.983826 485.397644,419.537628 484.113556,425.045319 
	C476.404053,458.112762 453.620148,476.121796 419.692871,476.360046 
	C400.646881,476.493774 382.612762,473.606384 366.704956,459.642242 
	C368.942505,474.521362 370.989136,488.130768 373.180328,502.611053 
M373.724152,348.041046 
	C372.699493,352.126343 370.323486,355.861908 370.223755,360.404266 
	C371.191833,360.481049 371.852295,360.647614 372.480896,360.566681 
	C392.349915,358.009064 412.237762,357.172943 432.188507,359.653687 
	C448.975067,361.740997 465.383179,365.049103 480.021362,374.157684 
	C482.016449,375.399139 483.803284,375.708649 486.105438,374.921295 
	C499.620880,370.299042 513.231873,370.393158 526.789734,374.710358 
	C529.293274,375.507538 531.167297,375.081726 533.285278,373.729004 
	C540.794128,368.932983 549.056580,365.843872 557.648254,363.667938 
	C584.170227,356.951202 611.012085,357.272705 637.953003,360.234955 
	C642.039856,360.684265 646.102295,361.355133 650.145081,361.919189 
	C650.875488,359.777100 649.741272,358.335938 649.268799,356.825500 
	C647.075195,349.813507 645.303284,342.660370 644.991150,335.358154 
	C644.803772,330.975525 643.321106,328.973633 639.228210,327.553131 
	C622.141174,321.622894 608.820374,310.778381 598.605042,295.862671 
	C592.670349,287.197174 589.661255,277.341370 585.925537,267.733704 
	C580.503296,253.788635 570.324280,245.080627 555.604675,242.301819 
	C540.886169,239.523193 527.914917,244.198227 516.564331,253.348801 
	C511.517181,257.417725 506.825226,258.507416 501.068970,255.295609 
	C496.842743,252.937531 492.177979,251.556870 487.519043,250.264130 
	C464.486542,243.873123 441.856873,256.627563 435.734314,279.639465 
	C428.186523,308.008179 410.489868,327.175720 383.180176,337.342651 
	C377.962280,339.285156 374.545990,341.641357 373.724152,348.041046 
M423.192657,690.355957 
	C422.986755,692.341858 422.583344,694.330444 422.611115,696.313110 
	C422.703400,702.893494 420.552490,709.723999 423.494110,715.996765 
	C427.024719,723.525574 431.342651,730.648560 436.291260,737.398010 
	C466.974091,779.246399 524.933655,788.989502 567.386719,759.330750 
	C581.356812,749.570862 591.300049,736.395569 599.585815,721.712646 
	C602.723938,716.151733 604.197205,710.596863 603.745667,704.178955 
	C602.764954,690.240906 602.305054,676.266907 601.524170,662.313660 
	C601.179199,656.149536 600.571411,650.000122 600.082886,643.843994 
	C599.376099,643.403748 598.669312,642.963440 597.962524,642.523193 
	C594.417419,646.721497 591.103210,651.144043 587.283936,655.076111 
	C575.868591,666.828552 562.133118,674.745361 546.143433,678.380188 
	C526.068604,682.943604 505.725647,682.192322 485.558838,679.626099 
	C465.851624,677.118225 449.660400,667.060181 435.713898,653.194885 
	C432.602417,650.101562 429.361298,647.138611 425.477325,643.448120 
	C424.688599,659.540894 423.956970,674.468323 423.192657,690.355957 
M463.825409,448.335144 
	C471.082672,438.663483 475.145935,427.704041 477.144409,415.854736 
	C479.834808,399.902985 473.409332,380.888733 452.404785,375.467804 
	C432.910461,370.436646 413.218292,370.286011 393.415955,372.626678 
	C387.134552,373.369171 380.954926,374.878265 375.176727,377.603241 
	C366.784424,381.561005 361.289856,387.842377 360.059937,397.276398 
	C357.698425,415.390778 361.614136,432.313232 370.039398,448.326660 
	C373.803894,455.481598 379.944000,459.831451 387.294739,462.738251 
	C399.994598,467.760376 413.280762,468.709808 426.621826,467.435486 
	C441.107178,466.051849 454.255432,461.262207 463.825409,448.335144 
M649.756653,433.295959 
	C652.411804,424.477203 653.868958,415.499176 653.768250,406.252899 
	C653.577698,388.760895 647.366821,380.255249 630.533264,375.301880 
	C614.628113,370.621765 598.309326,370.644684 581.979370,371.798279 
	C571.481506,372.539856 561.155029,374.280273 551.620544,379.198792 
	C544.780945,382.727112 540.239990,387.982086 537.597168,395.317627 
	C534.320984,404.411346 535.168823,413.394806 537.387085,422.347961 
	C542.598694,443.383484 553.423279,459.592743 575.792175,465.375946 
	C588.259705,468.599304 600.893555,468.675110 613.449097,466.359589 
	C630.807983,463.158264 643.449097,454.043396 648.696838,436.406891 
	C648.933960,435.610107 649.269714,434.842682 649.756653,433.295959 
M707.640991,455.389984 
	C707.375061,438.627228 695.763245,426.023804 680.532471,426.265839 
	C680.158386,427.786041 679.632141,429.356262 679.395996,430.968994 
	C675.741760,455.925110 672.122925,480.886414 668.502014,505.847412 
	C667.847900,510.356079 669.293823,511.659393 673.858887,510.351227 
	C680.315918,508.500946 685.392090,504.511932 689.577881,499.392700 
	C699.861572,486.815552 705.300171,472.183990 707.640991,455.389984 
M338.488983,427.125763 
	C323.500519,431.546631 315.169373,443.934174 317.571014,458.399078 
	C319.385345,469.326385 323.225342,479.581299 328.495605,489.278839 
	C331.686493,495.150269 335.552124,500.630280 340.771362,504.879547 
	C345.138275,508.434967 349.929230,511.329956 356.030823,510.387482 
	C356.196320,509.483368 356.418274,508.987854 356.351044,508.535278 
	C352.475464,482.438477 348.535889,456.351013 344.724091,430.244965 
	C344.185272,426.554779 342.408386,425.800171 338.488983,427.125763 
M663.876282,372.820709 
	C656.589294,371.181091 649.227600,370.058838 640.490601,369.396149 
	C647.931580,373.300690 653.417725,377.640411 657.120178,384.006104 
	C660.819702,390.366577 661.548889,397.550507 662.769104,405.016937 
	C664.875732,403.051849 664.996277,400.938202 665.683838,399.113647 
	C667.566345,394.118500 670.145142,389.451691 675.325745,387.603851 
	C680.396118,385.795319 679.900269,382.115936 679.575867,378.332306 
	C679.228455,374.279144 675.627197,374.980652 673.076416,374.395325 
	C670.328979,373.764862 667.503967,373.472137 663.876282,372.820709 
M369.158905,370.995514 
	C369.877136,370.686584 370.595367,370.377655 371.313599,370.068726 
	C360.167358,370.363678 349.365204,372.470154 338.596680,374.733856 
	C336.357269,375.204620 333.324036,375.014160 333.355438,378.759277 
	C333.383087,382.059845 332.760132,385.296906 337.033539,386.958282 
	C343.047058,389.296173 346.202087,394.341614 348.056519,400.304321 
	C348.518188,401.788727 348.186432,403.685791 350.751953,404.777710 
	C350.985748,390.445221 355.985291,378.751129 369.158905,370.995514 
M503.601196,380.153442 
	C498.867218,380.349762 494.036865,380.118744 489.915558,382.949799 
	C490.204834,385.908295 491.867310,385.288849 493.545410,384.819153 
	C502.190857,382.399506 510.840302,382.061188 519.499146,384.798279 
	C520.691223,385.175110 522.213745,386.037415 522.772217,384.036469 
	C523.333191,382.026581 521.408875,381.961365 520.331116,381.641785 
	C515.188354,380.116852 509.876221,380.034790 503.601196,380.153442 
z"/>
<path fill="#000000" opacity="1.000000" stroke="none" 
	d="
M476.695984,578.451294 
	C467.436768,574.780884 459.402252,569.789185 452.041412,563.724792 
	C447.230804,559.761414 446.182312,554.544922 449.158356,550.660400 
	C452.133087,546.777527 457.328064,546.624390 462.435028,550.577087 
	C477.371338,562.137573 493.999115,568.800720 513.109497,568.694519 
	C530.309204,568.598938 545.818542,563.499451 559.674561,553.336670 
	C561.418823,552.057312 563.083679,550.668823 564.839233,549.405823 
	C568.975159,546.430237 573.669983,546.693787 576.504944,550.008606 
	C579.778931,553.836792 579.385315,558.762268 575.248657,562.416199 
	C569.111572,567.837158 562.390015,572.475220 554.999634,576.010803 
	C529.416931,588.249451 503.395233,588.519226 476.695984,578.451294 
z"/>
</svg>